<svg width="24" height="22" viewBox="0 0 24 22" fill="none" xmlns="http://www.w3.org/2000/svg">
<path d="M20.9448 9.17398C20.8883 9.06593 20.7763 8.9982 20.6544 8.99829H3.3485C3.22658 8.99829 3.11478 9.06598 3.05825 9.17398L0.89319 13.2962C0.808909 13.4566 0.870596 13.6549 1.03105 13.7393C1.07811 13.764 1.13047 13.7769 1.18363 13.7769H3.02113V21.0144C3.02122 21.1956 3.16808 21.3424 3.34925 21.3425H20.6542C20.8354 21.3425 20.9823 21.1956 20.9823 21.0144V13.7769H22.8198C23.001 13.7769 23.1479 13.63 23.1479 13.4487C23.1479 13.3956 23.135 13.3432 23.1102 13.2962L20.9448 9.17398ZM3.54688 9.65454H11.4573L9.63856 13.1207H1.72606L3.54688 9.65454ZM3.67606 13.7769H9.83544C9.95745 13.7769 10.0694 13.7093 10.1261 13.6012L11.6726 10.6575V20.6874H3.67606V13.7769ZM20.3261 20.6869H12.3292V10.6569L13.8761 13.6012C13.9326 13.7093 14.0445 13.777 14.1665 13.7769H20.3261V20.6869ZM14.3636 13.1207L12.5448 9.65454H20.4562L22.2761 13.1207H14.3636Z" fill="#4295E4" stroke="#4295E4" stroke-width="0.5"/>
<path d="M12.0024 7.97436C14.0231 7.97436 15.6611 6.33631 15.6611 4.31567C15.6611 2.29503 14.0231 0.656982 12.0024 0.656982C9.9818 0.656982 8.34375 2.29503 8.34375 4.31567V4.31586C8.34605 6.33551 9.98278 7.9722 12.0024 7.97436ZM12.0024 1.31323C13.6606 1.31323 15.0049 2.65747 15.0049 4.31567C15.0049 5.97387 13.6606 7.31811 12.0024 7.31811C10.3443 7.31811 9.00009 5.97397 9 4.31586C9.00187 2.6584 10.345 1.3152 12.0024 1.31323Z" fill="#4295E4" stroke="#4295E4" stroke-width="0.5"/>
<path d="M12.3328 5.22933H10.8555C10.6742 5.22933 10.5273 5.37623 10.5273 5.55745C10.5273 5.73867 10.6742 5.88558 10.8555 5.88558H12.332C13.0791 5.87676 13.6776 5.26401 13.6688 4.51692C13.6601 3.78225 13.0667 3.18876 12.332 3.18014H11.6477L11.8757 2.95214C12.0062 2.82642 12.01 2.61872 11.8843 2.48817C11.7586 2.35767 11.5509 2.35378 11.4204 2.4795C11.4176 2.48212 11.415 2.4848 11.4123 2.48751L10.6248 3.27501C10.4966 3.40298 10.4965 3.61064 10.6245 3.7388C10.6246 3.73889 10.6247 3.73898 10.6248 3.73908L11.4123 4.52658C11.5405 4.65473 11.7482 4.65473 11.8764 4.52658C12.0045 4.39842 12.0045 4.19067 11.8764 4.06251L11.6482 3.83433H12.3327C12.7174 3.84065 13.0241 4.15758 13.0178 4.54223C13.0116 4.91798 12.7085 5.22112 12.3327 5.22726L12.3328 5.22933Z" fill="#4295E4" stroke="#4295E4" stroke-width="0.5"/>
</svg>
