<svg width="14" height="13" viewBox="0 0 14 13" fill="none" xmlns="http://www.w3.org/2000/svg">
<path d="M11.358 0H1.88999C0.847822 0 0 0.847849 0 1.88999V8.28013C0 9.32227 0.847822 10.1701 1.88999 10.1701H2.63165L2.64616 11.8386C2.64746 11.9924 2.73577 12.1322 2.8741 12.1994C2.93032 12.2267 2.99085 12.2401 3.05108 12.2401C3.13903 12.2401 3.22634 12.2115 3.29858 12.1557L5.87121 10.1701H11.358C12.4002 10.1701 13.248 9.32227 13.248 8.28013V1.88999C13.248 0.847849 12.4002 0 11.358 0ZM12.438 8.28015C12.438 8.87567 11.9536 9.36015 11.358 9.36015H5.73311C5.64358 9.36015 5.55657 9.38983 5.48567 9.44453L3.44902 11.0164L3.4381 9.76163C3.43618 9.53934 3.25542 9.36015 3.03313 9.36015H1.88999C1.29448 9.36015 0.809993 8.87567 0.809993 8.28015V1.88999C0.809993 1.29448 1.29448 0.809993 1.88999 0.809993H11.3581C11.9536 0.809993 12.4381 1.29448 12.4381 1.88999V8.28015H12.438Z" fill="#C4CDD5"/>
</svg>
