<svg width="14" height="14" viewBox="0 0 14 14" fill="none" xmlns="http://www.w3.org/2000/svg">
<g clip-path="url(#clip0_193_3704)">
<path d="M13.5984 8.52162C13.3957 8.52162 13.2315 8.68589 13.2315 8.88856V12.1467C13.2308 12.7543 12.7384 13.2468 12.1307 13.2475H1.8347C1.22695 13.2468 0.734596 12.7543 0.733879 12.1467V2.58466C0.734596 1.97691 1.22695 1.48455 1.8347 1.48384H5.09272C5.2954 1.48384 5.45966 1.31957 5.45966 1.1169C5.45966 0.914221 5.2954 0.749958 5.09272 0.749958H1.8347C0.821887 0.751105 0.00114669 1.57185 0 2.58466V12.1467C0.00114669 13.1595 0.821887 13.9803 1.8347 13.9814H12.1307C13.1435 13.9803 13.9642 13.1595 13.9653 12.1467V8.88871C13.9653 8.68603 13.8011 8.52162 13.5984 8.52162Z" fill="#4295E4"/>
<path d="M5.73828 6.59052L11.096 1.23264L12.8239 2.96055L7.46619 8.31843L5.73828 6.59052Z" fill="#4295E4"/>
<path d="M4.86328 9.19271L6.7728 8.6638L5.39219 7.28319L4.86328 9.19271Z" fill="#4295E4"/>
<path d="M13.3017 0.324442C12.9432 -0.0331809 12.3629 -0.0331809 12.0044 0.324442L11.6152 0.713599L13.3432 2.44151L13.7323 2.05235C14.0901 1.69387 14.0901 1.11351 13.7323 0.755023L13.3017 0.324442Z" fill="#4295E4"/>
</g>
<defs>
<clipPath id="clip0_193_3704">
<rect width="14" height="14" fill="white"/>
</clipPath>
</defs>
</svg>
