<svg width="20" height="14" viewBox="0 0 20 14" fill="none" xmlns="http://www.w3.org/2000/svg">
<path d="M17.8125 0.125H2.1875C0.981328 0.125 0 1.10633 0 2.3125V11.6875C0 12.8937 0.981328 13.875 2.1875 13.875H17.8125C19.0187 13.875 20 12.8937 20 11.6875V2.3125C20 1.10633 19.0187 0.125 17.8125 0.125ZM2.1875 1.375H17.8125C18.3294 1.375 18.75 1.79559 18.75 2.3125V3.5625H1.25V2.3125C1.25 1.79559 1.67059 1.375 2.1875 1.375ZM17.8125 12.625H2.1875C1.67059 12.625 1.25 12.2044 1.25 11.6875V4.8125H18.75V11.6875C18.75 12.2044 18.3294 12.625 17.8125 12.625Z" fill="#4295E4"/>
<path d="M4.375 10.75H3.75C3.40484 10.75 3.125 10.4702 3.125 10.125V9.5C3.125 9.15484 3.40484 8.875 3.75 8.875H4.375C4.72016 8.875 5 9.15484 5 9.5V10.125C5 10.4702 4.72016 10.75 4.375 10.75Z" fill="#4295E4"/>
</svg>
