<svg width="32" height="28" viewBox="0 0 32 28" fill="none" xmlns="http://www.w3.org/2000/svg">
<path d="M0.0076952 20.1948C0.0076952 20.1982 0.00731659 20.2017 0.00731659 20.2051C0.00731659 24.4122 3.41772 27.8226 7.62478 27.8226C11.8318 27.8226 15.2422 24.4123 15.2422 20.2051C15.2422 15.998 11.8315 12.5877 7.62472 12.5877C6.76011 12.5877 5.93246 12.7384 5.15804 13.0039C6.87184 3.17235 14.5386 -3.16801 7.4316 2.05024C-0.449083 7.8367 -0.00112247 19.9727 0.0076952 20.1948Z" fill="#4295E4"/>
<path d="M24.3825 12.5877C23.5179 12.5877 22.6903 12.7385 21.9155 13.004C23.6297 3.17242 31.2965 -3.16795 24.1894 2.05031C16.3087 7.83671 16.7566 19.9727 16.7655 20.1948C16.7655 20.1982 16.7651 20.2017 16.7651 20.2051C16.7651 24.4122 20.1754 27.8226 24.3825 27.8226C28.5896 27.8226 32 24.4123 32 20.2051C32 15.998 28.5893 12.5877 24.3825 12.5877Z" fill="#4295E4"/>
</svg>
