<svg width="22" height="22" viewBox="0 0 22 22" fill="none" xmlns="http://www.w3.org/2000/svg">
<path d="M0.5 19.2698C0.5 20.4995 1.5005 21.5 2.7302 21.5H19.2697C20.4995 21.5 21.5 20.4995 21.5 19.2698V2.7302C21.5 1.5005 20.4995 0.5 19.2698 0.5H2.7302C1.5005 0.5 0.5 1.5005 0.5 2.7302V19.2698ZM19.2698 20H2.7302C2.32737 20 2 19.6726 2 19.2698V18.1109L8.72435 12.7307L15.0019 18.3103C15.311 18.5857 15.7849 18.5587 16.0602 18.2481C16.3356 17.939 16.3078 17.4644 15.998 17.1898L14.2813 15.6638L16.1797 14.2403L20 18.0606V19.2698C20 19.6726 19.6726 20 19.2698 20ZM2.7302 2H19.2697C19.6726 2 20 2.32737 20 2.7302V15.9394L16.7803 12.7197C16.5173 12.4545 16.0984 12.426 15.8003 12.6501L13.1377 14.6471L9.248 11.1897C8.97627 10.9465 8.5676 10.9355 8.28117 11.164L2 16.1891V2.7302C2 2.32737 2.32737 2 2.7302 2Z" fill="#4295E4"/>
<path d="M14.75 9.5C16.4046 9.5 17.75 8.15457 17.75 6.5C17.75 4.84543 16.4046 3.5 14.75 3.5C13.0954 3.5 11.75 4.84543 11.75 6.5C11.75 8.15457 13.0954 9.5 14.75 9.5ZM14.75 5C15.5769 5 16.25 5.67313 16.25 6.5C16.25 7.32687 15.5769 8 14.75 8C13.9231 8 13.25 7.32687 13.25 6.5C13.25 5.67313 13.9231 5 14.75 5Z" fill="#4295E4"/>
</svg>
