<svg width="70" height="57" viewBox="0 0 70 57" fill="none" xmlns="http://www.w3.org/2000/svg">
<path d="M25.4795 17.7408H31.1111V29.0058C27.9519 32.4685 23.4192 34.1999 17.5129 34.1999C12.5223 34.1999 8.35581 32.5809 5.01348 29.3431C1.67116 26.1052 0 22.0579 0 17.2011C0 12.3443 1.69405 8.27452 5.08216 4.9917C8.51606 1.6639 12.6596 0 17.5129 0C22.3661 0 26.3952 1.37159 29.6002 4.11478L26.5783 8.36447C24.2433 6.43074 21.3817 5.46388 17.9936 5.46388C14.5597 5.46388 11.6752 6.56566 9.34019 8.7692C7.05093 10.9278 5.9063 13.7384 5.9063 17.2011C5.9063 20.6638 7.00514 23.4745 9.20284 25.633C11.4463 27.7466 14.2163 28.8034 17.5129 28.8034C20.7178 28.8034 23.3734 28.1289 25.4795 26.7798V17.7408Z" fill="white"/>
<line x1="37.4448" y1="2.18558e-08" x2="37.4448" y2="22.7999" stroke="white"/>
<line x1="37.4448" y1="22.8" x2="37.4448" y2="45.6" stroke="#4295E4"/>
<path d="M57.527 56.9999C52.0643 56.9999 47.148 55.3374 42.7778 52.0124L46.2375 46.5796C50.1221 49.489 53.9459 50.9437 57.7091 50.9437C59.2872 50.9437 60.5314 50.5874 61.4419 49.8749C62.413 49.1031 62.8986 48.1531 62.8986 47.025C62.8986 45.3625 60.6528 43.8781 56.1613 42.5718C56.0399 42.5125 55.8882 42.4531 55.7061 42.3937C55.5847 42.3343 55.4937 42.3047 55.433 42.3047C48.3922 40.464 44.8718 37.3469 44.8718 32.9531C44.8718 29.8656 46.0554 27.4016 48.4226 25.561C50.8504 23.7204 54.037 22.8 57.9822 22.8C61.8668 22.8 65.5692 23.9282 69.0896 26.1844L66.4493 31.35C63.718 29.5688 60.7135 28.6782 57.4359 28.6782C53.6121 28.6782 51.7002 29.8656 51.7002 32.2406C51.7002 33.25 52.0643 33.9922 52.7927 34.4672C53.5817 34.8828 54.8564 35.2984 56.6165 35.7141C59.2872 36.4266 61.5329 37.1391 63.3538 37.8516C64.5677 38.3859 65.6299 38.95 66.5403 39.5437C68.8468 41.0875 70 43.4328 70 46.5796C70 49.6671 68.8164 52.1906 66.4493 54.1499C64.1429 56.0499 61.1687 56.9999 57.527 56.9999Z" fill="#4295E4"/>
</svg>
