<svg width="14" height="15" viewBox="0 0 14 15" fill="none" xmlns="http://www.w3.org/2000/svg">
<path d="M6.38272 1.25533C6.59605 0.692662 7.40338 0.692662 7.61738 1.25533L8.99738 5.07799C9.09405 5.33133 9.34005 5.5 9.61472 5.5H13.0061C13.6327 5.5 13.9061 6.27999 13.4134 6.66199L11.0001 8.83333C10.8919 8.91643 10.8129 9.03165 10.7744 9.16243C10.7358 9.29322 10.7397 9.43287 10.7854 9.56133L11.6667 13.2967C11.8814 13.8967 11.1867 14.412 10.6614 14.0427L7.38338 11.9627C7.27113 11.8838 7.13726 11.8414 7.00005 11.8414C6.86284 11.8414 6.72897 11.8838 6.61672 11.9627L3.33872 14.0427C2.81405 14.412 2.11872 13.896 2.33338 13.2967L3.21472 9.56133C3.26044 9.43287 3.26429 9.29322 3.22572 9.16243C3.18716 9.03165 3.10816 8.91643 3.00005 8.83333L0.586718 6.66199C0.0933844 6.27999 0.368051 5.5 0.993384 5.5H4.38472C4.51825 5.50044 4.64876 5.46033 4.759 5.38498C4.86923 5.30962 4.95399 5.20257 5.00205 5.07799L6.38205 1.25533H6.38272Z" fill="#F7AB3A"/>
</svg>
