<?xml version="1.0" encoding="utf-8"?><svg viewBox="0 0 95 112" xmlns="http://www.w3.org/2000/svg" xmlns:xlink="http://www.w3.org/1999/xlink"><style>:root>svg{display:none}:root>svg:target{display:block}</style><svg viewBox="0 0 18 18" id="addition-plus" xmlns="http://www.w3.org/2000/svg"><path d="M9 9H1m8 8V9v8zm0-8V1v8zm0 0h8-8z"/></svg><svg viewBox="0 0 78 72" id="advantages-1" xmlns="http://www.w3.org/2000/svg"><path d="M69.558 29.761a1.12 1.12 0 00-.992-.6H9.437a1.12 1.12 0 00-.991.6L1.048 43.845a1.121 1.121 0 00.993 1.643h6.278v24.728c0 .619.502 1.12 1.12 1.12h59.126a1.12 1.12 0 001.121-1.12V45.488h6.278a1.121 1.121 0 00.993-1.643l-7.399-14.084zm-59.443 1.642h27.027l-6.214 11.843H3.894l6.221-11.843zm.441 14.085h21.045c.417 0 .8-.231.993-.6l5.284-10.058v34.269H10.556V45.487zm56.888 23.609H40.121v-34.27l5.285 10.06c.194.37.576.6.993.6h21.045v23.61zM47.072 43.246l-6.214-11.843h27.03l6.218 11.843H47.072zM39 25.662c6.904 0 12.5-5.596 12.5-12.5S45.904.662 39 .662s-12.5 5.596-12.5 12.5c.007 6.9 5.6 12.493 12.5 12.5zm0-22.759c5.666 0 10.258 4.593 10.258 10.259 0 5.665-4.592 10.258-10.258 10.258-5.665 0-10.258-4.592-10.258-10.258C28.748 7.5 33.337 2.91 39 2.903z"/><path d="M40.14 16.284h-5.048a1.121 1.121 0 100 2.242h5.045a4.622 4.622 0 000-9.244H37.8l.779-.779a1.121 1.121 0 10-1.583-1.587l-2.69 2.69a1.12 1.12 0 000 1.586l2.69 2.69a1.121 1.121 0 101.585-1.585l-.78-.78h2.34a2.38 2.38 0 010 4.76v.006z"/></svg><svg viewBox="0 0 82 82" id="advantages-2" xmlns="http://www.w3.org/2000/svg"><path d="M80.984 43.479a5.18 5.18 0 010-4.957 8.406 8.406 0 00-2.095-10.533 5.183 5.183 0 01-1.897-4.58 8.406 8.406 0 00-5.967-8.929 5.182 5.182 0 01-3.505-3.505 8.405 8.405 0 00-8.929-5.966 5.182 5.182 0 01-4.58-1.897 8.405 8.405 0 00-10.533-2.096 5.183 5.183 0 01-4.957 0 8.406 8.406 0 00-10.533 2.095 5.182 5.182 0 01-4.58 1.897 8.405 8.405 0 00-8.929 5.967 5.182 5.182 0 01-3.505 3.505 8.406 8.406 0 00-5.966 8.929 5.182 5.182 0 01-1.897 4.58A8.406 8.406 0 001.016 38.52a5.182 5.182 0 010 4.957A8.406 8.406 0 003.11 54.011a5.183 5.183 0 011.897 4.58 8.405 8.405 0 005.966 8.929 5.182 5.182 0 013.505 3.505 8.405 8.405 0 008.93 5.966 5.181 5.181 0 014.58 1.897 8.406 8.406 0 0010.533 2.095 5.183 5.183 0 014.956 0 8.403 8.403 0 0010.533-2.095 5.184 5.184 0 014.58-1.897 8.408 8.408 0 008.93-5.966 5.182 5.182 0 013.504-3.505 8.406 8.406 0 005.967-8.93 5.182 5.182 0 011.897-4.58 8.405 8.405 0 002.095-10.531zm-2.816 1.527a5.201 5.201 0 01-1.297 6.517 8.375 8.375 0 00-3.065 7.402 5.201 5.201 0 01-3.692 5.525 8.375 8.375 0 00-5.665 5.665 5.199 5.199 0 01-5.525 3.691 8.375 8.375 0 00-7.4 3.066 5.202 5.202 0 01-6.519 1.297A8.39 8.39 0 0041 77.149c-1.376 0-2.752.34-4.005 1.02a5.201 5.201 0 01-6.518-1.297 8.374 8.374 0 00-7.401-3.065 5.201 5.201 0 01-5.526-3.692 8.375 8.375 0 00-5.664-5.665 5.202 5.202 0 01-3.692-5.525 8.375 8.375 0 00-3.066-7.401 5.201 5.201 0 01-1.296-6.518 8.375 8.375 0 000-8.011 5.201 5.201 0 011.296-6.518 8.375 8.375 0 003.066-7.4 5.202 5.202 0 013.692-5.526 8.374 8.374 0 005.664-5.665 5.2 5.2 0 015.526-3.692 8.374 8.374 0 007.4-3.065 5.202 5.202 0 016.518-1.297 8.374 8.374 0 008.011 0 5.201 5.201 0 016.518 1.296 8.373 8.373 0 007.401 3.066 5.202 5.202 0 015.525 3.692 8.374 8.374 0 005.665 5.664 5.202 5.202 0 013.692 5.526 8.375 8.375 0 003.065 7.4 5.201 5.201 0 011.297 6.519 8.376 8.376 0 000 8.01z"/><path d="M56.313 12.493C50.316 9.269 43.28 8.015 36.503 8.96c-7.008.978-13.363 4.147-18.38 9.163-4.77 4.77-7.887 10.794-9.014 17.421a32.275 32.275 0 002.5 18.996 1.602 1.602 0 102.909-1.34c-5.082-11.033-2.723-24.22 5.87-32.812 9.027-9.027 23.176-11.114 34.408-5.075a1.602 1.602 0 001.517-2.821zM20.456 61.68l-.068-.069a1.602 1.602 0 00-2.265 2.266l.069.067a1.596 1.596 0 002.265 0 1.602 1.602 0 000-2.265zm48.936-36.205a1.602 1.602 0 00-2.81 1.538c6.171 11.273 4.127 25.5-4.97 34.598-8.568 8.568-21.27 10.953-32.357 6.076a1.601 1.601 0 00-1.29 2.932 32.248 32.248 0 0013.005 2.738 32.7 32.7 0 005.754-.512 32.16 32.16 0 0017.152-8.968c5.047-5.047 8.221-11.443 9.18-18.497.927-6.825-.374-13.894-3.663-19.905zm-5.474-7.309l-.042-.042a1.602 1.602 0 00-2.265 2.265l.042.042c.313.313.723.469 1.133.469a1.602 1.602 0 001.132-2.734z"/><path d="M61.34 42.602a4.49 4.49 0 00-2.642-4.087 4.46 4.46 0 00.328-1.679 4.49 4.49 0 00-4.485-4.484h-6.964l.457-1.358a8.229 8.229 0 00-.486-6.445 8.229 8.229 0 00-4.962-4.14 1.602 1.602 0 00-1.972.988l-2.452 6.775a7.643 7.643 0 01-3.534 4.115l-1.947 1.06a3.59 3.59 0 00-2.483-.995h-6.896a3.608 3.608 0 00-3.603 3.603v19.059a3.608 3.608 0 003.603 3.603h6.896c1.102 0 2.09-.497 2.751-1.28l.732.288c1.68.658 3.447.993 5.251.993h13.6a4.49 4.49 0 004.484-4.485c0-.604-.121-1.18-.339-1.707a4.49 4.49 0 002.58-4.058c0-.63-.131-1.228-.366-1.772a4.49 4.49 0 002.449-3.994zM30.598 55.014a.4.4 0 01-.4.4h-6.896a.4.4 0 01-.4-.4V35.955c0-.22.18-.4.4-.4h6.896a.4.4 0 01.365.237c.009.042.02.084.032.126l.003.037v19.059zm26.257-11.13h-7.207a1.602 1.602 0 000 3.202h5.124a1.283 1.283 0 010 2.563h-5.124a1.602 1.602 0 000 3.203h2.883c.706 0 1.281.575 1.281 1.281 0 .707-.575 1.281-1.281 1.281H38.932c-1.403 0-2.776-.26-4.082-.771l-1.049-.412V36.385L36.16 35.1a10.843 10.843 0 005.016-5.838l1.857-5.134a5.063 5.063 0 011.669 1.887A5.052 5.052 0 0145 29.971l-1.17 3.471a1.602 1.602 0 001.518 2.113h9.194c.707 0 1.282.575 1.282 1.281 0 .707-.575 1.281-1.282 1.281h-4.893a1.602 1.602 0 000 3.204h7.207c.707 0 1.282.574 1.282 1.28 0 .707-.575 1.282-1.282 1.282z"/></svg><svg viewBox="0 0 10 10" id="answer" xmlns="http://www.w3.org/2000/svg"><path d="M.278 0A.278.278 0 000 .278v5.834a1.11 1.11 0 001.111 1.111H8.15L6.233 9.134a.278.278 0 000 .395l.395.389a.278.278 0 00.394 0l2.856-2.85A.417.417 0 0010 6.772v-.211a.428.428 0 00-.122-.295l-2.856-2.85a.278.278 0 00-.394 0l-.395.395a.272.272 0 000 .388L8.15 6.112H1.111V.278A.278.278 0 00.833 0H.278z"/></svg><svg viewBox="0 0 12 7" id="arrow-down" xmlns="http://www.w3.org/2000/svg"><path d="M1.233 1.25L5.9 5.917l4.667-4.667"/></svg><svg viewBox="0 0 14 8" id="arrow-down-gray" xmlns="http://www.w3.org/2000/svg"><path d="M13 1L7 7 1 1"/></svg><svg viewBox="0 0 14 24" id="arrow-left" xmlns="http://www.w3.org/2000/svg"><path d="M12.332 22.667L1.665 12 12.332 1.333"/></svg><svg viewBox="0 0 14 24" id="arrow-right" xmlns="http://www.w3.org/2000/svg"><path d="M1.668 1.333L12.335 12 1.668 22.667"/></svg><svg viewBox="0 0 20 14" id="bank-card" xmlns="http://www.w3.org/2000/svg"><path d="M17.813.125H2.188A2.19 2.19 0 000 2.313v9.374a2.19 2.19 0 002.188 2.188h15.624A2.19 2.19 0 0020 11.687V2.313A2.19 2.19 0 0017.812.124zM2.188 1.375h15.624c.517 0 .938.42.938.938v1.25H1.25v-1.25c0-.517.42-.938.938-.938zm15.624 11.25H2.188a.939.939 0 01-.937-.938V4.814h17.5v6.875c0 .516-.42.937-.938.937z"/><path d="M4.375 10.75H3.75a.625.625 0 01-.625-.625V9.5c0-.345.28-.625.625-.625h.625c.345 0 .625.28.625.625v.625c0 .345-.28.625-.625.625z"/></svg><svg viewBox="0 0 24 24" id="bank-card-2" xmlns="http://www.w3.org/2000/svg"><path d="M2 7a2 2 0 012-2h16a2 2 0 012 2v10a2 2 0 01-2 2H4a2 2 0 01-2-2V7z"/><path d="M12 15a3 3 0 100-6 3 3 0 000 6zM2 9a4 4 0 004-4m12 14a4 4 0 014-4"/></svg><svg viewBox="0 0 32 32" id="basket" xmlns="http://www.w3.org/2000/svg"><path d="M6.667 9.333h18.386a2.667 2.667 0 012.653 2.932l-.8 8a2.667 2.667 0 01-2.653 2.402H11.52a2.667 2.667 0 01-2.616-2.144L6.667 9.333zm0 0L5.587 5.01A1.333 1.333 0 004.293 4H2.666m8 24h2.667m8.001 0H24"/></svg><svg viewBox="0 0 32 28" id="bracket" xmlns="http://www.w3.org/2000/svg"><path d="M.008 20.195v.01a7.617 7.617 0 107.617-7.617c-.865 0-1.693.15-2.467.416C6.872 3.172 14.538-3.168 7.432 2.05-.45 7.837-.001 19.973.008 20.195zm24.375-7.607a7.59 7.59 0 00-2.467.416c1.714-9.832 9.38-16.172 2.273-10.954-7.88 5.787-7.432 17.923-7.424 18.145v.01a7.617 7.617 0 107.617-7.617z"/></svg><svg viewBox="0 0 24 24" id="cart-delete" xmlns="http://www.w3.org/2000/svg"><path d="M4 6h16l-1.58 14.22A2 2 0 0116.432 22H7.568a2 2 0 01-1.988-1.78L4 6zm3.345-2.853A2 2 0 019.154 2h5.692a2 2 0 011.81 1.147L18 6H6l1.345-2.853zM2 6h20m-12 5v5m4-5v5"/></svg><svg viewBox="0 0 10 8" id="check" xmlns="http://www.w3.org/2000/svg"><path d="M1 4l3 3 5-6"/></svg><svg viewBox="0 0 8 6" id="checkbox" xmlns="http://www.w3.org/2000/svg"><path opacity=".9" d="M2.719 5.874L.109 3.267A.384.384 0 010 2.984c0-.115.036-.21.11-.282l.578-.566A.348.348 0 01.96 2.01c.11 0 .206.042.289.126L3 3.896 6.75.125A.396.396 0 017.04 0c.108 0 .2.042.272.126l.579.565A.385.385 0 018 .974a.38.38 0 01-.11.283L3.282 5.874A.356.356 0 013 6a.356.356 0 01-.281-.126z"/></svg><svg viewBox="0 0 24 22" id="choose-1" xmlns="http://www.w3.org/2000/svg"><path d="M20.945 9.174a.328.328 0 00-.29-.176H3.348a.328.328 0 00-.29.176L.892 13.296a.328.328 0 00.29.48H3.02v7.238c0 .182.147.328.328.329h17.305a.328.328 0 00.328-.329v-7.237h1.838a.328.328 0 00.29-.48l-2.165-4.123zm-17.398.48h7.91L9.64 13.122H1.726l1.82-3.466zm.13 4.123h6.158a.328.328 0 00.291-.176l1.547-2.944v10.03H3.676v-6.91zm16.65 6.91h-7.998v-10.03l1.547 2.944a.327.327 0 00.29.176h6.16v6.91zm-5.963-7.566l-1.82-3.466h7.912l1.82 3.466h-7.912zm-2.362-5.147a3.659 3.659 0 10-3.658-3.658 3.663 3.663 0 003.658 3.658zm0-6.66a3.002 3.002 0 110 6.004 3.002 3.002 0 010-6.005z"/><path d="M12.333 5.23h-1.478a.328.328 0 100 .656h1.477a1.353 1.353 0 000-2.706h-.684l.228-.228a.328.328 0 00-.456-.473l-.008.009-.787.787a.328.328 0 000 .464l.787.788a.328.328 0 00.464-.464l-.228-.229h.685a.697.697 0 010 1.393v.002z"/></svg><svg viewBox="0 0 24 24" id="choose-2" xmlns="http://www.w3.org/2000/svg"><g clip-path="url(#aqa)"><mask id="aqa"><path d="M19.482 13.481l-.278-.277a.102.102 0 01-.018-.11l.008-.018c.015-.037.058-.045.091-.045h.392c1.376 0 2.495-1.129 2.495-2.517v-.778a2.44 2.44 0 00-.738-1.76 2.495 2.495 0 00-1.757-.71h-.392c-.015 0-.067-.033-.093-.096l-.004-.01c-.018-.042-.011-.087.016-.114l.277-.277a2.476 2.476 0 00.731-1.764c0-.667-.26-1.293-.73-1.764l-.551-.55a2.478 2.478 0 00-1.764-.731c-.667 0-1.293.26-1.764.73l-.277.278a.105.105 0 01-.112.017l-.016-.007c-.037-.015-.045-.058-.045-.091v-.392C14.953 1.119 13.824 0 12.436 0h-.778C10.27 0 9.14 1.12 9.14 2.495v.392c0 .033-.008.076-.044.09l-.016.007c-.041.017-.086.01-.113-.016L8.69 2.69a2.479 2.479 0 00-1.764-.73c-.667 0-1.293.26-1.764.73l-.55.55a2.478 2.478 0 00-.732 1.765c0 .666.26 1.293.731 1.764l.277.277c.028.027.034.072.018.112l-.007.016c-.015.037-.058.045-.091.045h-.393c-1.375 0-2.494 1.129-2.494 2.517v.778c0 .669.262 1.294.738 1.76a2.495 2.495 0 001.756.71h.393c.015 0 .066.033.093.096l.004.01c.017.042.01.087-.017.114l-.277.277a2.498 2.498 0 000 3.528l.55.55a2.498 2.498 0 003.529 0l.277-.277c.027-.027.072-.033.112-.017l.016.007c.037.015.045.058.045.091v.392c0 1.376 1.129 2.495 2.517 2.495h.778c1.388 0 2.517-1.12 2.517-2.495v-.392c0-.033.008-.076.045-.091l.015-.006a.106.106 0 01.113.016l.277.278a2.498 2.498 0 003.528 0l.55-.55a2.498 2.498 0 000-3.529zm-1.603 1.049l.277.277a.62.62 0 010 .876l-.55.55a.62.62 0 01-.877 0l-.277-.276a1.972 1.972 0 00-2.16-.422l-.01.004a1.96 1.96 0 00-1.204 1.824v.392c0 .336-.294.62-.642.62h-.778c-.348 0-.642-.284-.642-.62v-.392A1.96 1.96 0 009.81 15.54l-.01-.005a1.999 1.999 0 00-.768-.154c-.513 0-1.014.2-1.39.576l-.278.278a.62.62 0 01-.876 0l-.551-.55a.62.62 0 010-.877l.277-.277a1.973 1.973 0 00.421-2.161l-.003-.008c-.31-.749-1.042-1.252-1.824-1.252h-.393a.601.601 0 01-.62-.595v-.778c0-.348.285-.642.62-.642h.393a1.96 1.96 0 001.825-1.208l.004-.008a1.972 1.972 0 00-.423-2.158l-.277-.277a.616.616 0 010-.876l.55-.551a.616.616 0 01.877 0l.277.277a1.972 1.972 0 002.16.422l.01-.004a1.96 1.96 0 001.204-1.824v-.392c0-.336.293-.62.642-.62h.778c.348 0 .642.284.642.62v.392a1.96 1.96 0 001.205 1.824l.01.005c.746.31 1.593.143 2.159-.423l.277-.277a.616.616 0 01.876 0l.55.55a.616.616 0 010 .877l-.277.277a1.972 1.972 0 00-.422 2.16l.005.01c.309.748 1.042 1.25 1.824 1.25h.392c.348 0 .62.262.62.596v.778c0 .348-.284.642-.62.642h-.392a1.96 1.96 0 00-1.824 1.204l-.005.012a1.971 1.971 0 00.423 2.158zM24 18.516v1.734A3.754 3.754 0 0120.25 24a.937.937 0 110-1.875 1.877 1.877 0 001.875-1.875v-1.734a.937.937 0 111.875 0zm-7.547 4.547c0 .517-.42.937-.937.937H3.75A3.754 3.754 0 010 20.25v-1.734a.937.937 0 111.875 0v1.734c0 1.034.841 1.875 1.875 1.875h11.766c.517 0 .937.42.937.938zM15.434 9.957a.938.938 0 010 1.326l-1.44 1.44a2.795 2.795 0 01-1.988.824 2.794 2.794 0 01-1.989-.824l-1.44-1.44a.937.937 0 111.326-1.326l1.21 1.211-.004-4.276a.938.938 0 111.875-.002l.005 4.187 1.12-1.12a.938.938 0 011.325 0z"/></mask><path d="M19.482 13.481l-.278-.277a.102.102 0 01-.018-.11l.008-.018c.015-.037.058-.045.091-.045h.392c1.376 0 2.495-1.129 2.495-2.517v-.778a2.44 2.44 0 00-.738-1.76 2.495 2.495 0 00-1.757-.71h-.392c-.015 0-.067-.033-.093-.096l-.004-.01c-.018-.042-.011-.087.016-.114l.277-.277a2.476 2.476 0 00.731-1.764c0-.667-.26-1.293-.73-1.764l-.551-.55a2.478 2.478 0 00-1.764-.731c-.667 0-1.293.26-1.764.73l-.277.278a.105.105 0 01-.112.017l-.016-.007c-.037-.015-.045-.058-.045-.091v-.392C14.953 1.119 13.824 0 12.436 0h-.778C10.27 0 9.14 1.12 9.14 2.495v.392c0 .033-.008.076-.044.09l-.016.007c-.041.017-.086.01-.113-.016L8.69 2.69a2.479 2.479 0 00-1.764-.73c-.667 0-1.293.26-1.764.73l-.55.55a2.478 2.478 0 00-.732 1.765c0 .666.26 1.293.731 1.764l.277.277c.028.027.034.072.018.112l-.007.016c-.015.037-.058.045-.091.045h-.393c-1.375 0-2.494 1.129-2.494 2.517v.778c0 .669.262 1.294.738 1.76a2.495 2.495 0 001.756.71h.393c.015 0 .066.033.093.096l.004.01c.017.042.01.087-.017.114l-.277.277a2.498 2.498 0 000 3.528l.55.55a2.498 2.498 0 003.529 0l.277-.277c.027-.027.072-.033.112-.017l.016.007c.037.015.045.058.045.091v.392c0 1.376 1.129 2.495 2.517 2.495h.778c1.388 0 2.517-1.12 2.517-2.495v-.392c0-.033.008-.076.045-.091l.015-.006a.106.106 0 01.113.016l.277.278a2.498 2.498 0 003.528 0l.55-.55a2.498 2.498 0 000-3.529zm-1.603 1.049l.277.277a.62.62 0 010 .876l-.55.55a.62.62 0 01-.877 0l-.277-.276a1.972 1.972 0 00-2.16-.422l-.01.004a1.96 1.96 0 00-1.204 1.824v.392c0 .336-.294.62-.642.62h-.778c-.348 0-.642-.284-.642-.62v-.392A1.96 1.96 0 009.81 15.54l-.01-.005a1.999 1.999 0 00-.768-.154c-.513 0-1.014.2-1.39.576l-.278.278a.62.62 0 01-.876 0l-.551-.55a.62.62 0 010-.877l.277-.277a1.973 1.973 0 00.421-2.161l-.003-.008c-.31-.749-1.042-1.252-1.824-1.252h-.393a.601.601 0 01-.62-.595v-.778c0-.348.285-.642.62-.642h.393a1.96 1.96 0 001.825-1.208l.004-.008a1.972 1.972 0 00-.423-2.158l-.277-.277a.616.616 0 010-.876l.55-.551a.616.616 0 01.877 0l.277.277a1.972 1.972 0 002.16.422l.01-.004a1.96 1.96 0 001.204-1.824v-.392c0-.336.293-.62.642-.62h.778c.348 0 .642.284.642.62v.392a1.96 1.96 0 001.205 1.824l.01.005c.746.31 1.593.143 2.159-.423l.277-.277a.616.616 0 01.876 0l.55.55a.616.616 0 010 .877l-.277.277a1.972 1.972 0 00-.422 2.16l.005.01c.309.748 1.042 1.25 1.824 1.25h.392c.348 0 .62.262.62.596v.778c0 .348-.284.642-.62.642h-.392a1.96 1.96 0 00-1.824 1.204l-.005.012a1.971 1.971 0 00.423 2.158zM24 18.516v1.734A3.754 3.754 0 0120.25 24a.937.937 0 110-1.875 1.877 1.877 0 001.875-1.875v-1.734a.937.937 0 111.875 0zm-7.547 4.547c0 .517-.42.937-.937.937H3.75A3.754 3.754 0 010 20.25v-1.734a.937.937 0 111.875 0v1.734c0 1.034.841 1.875 1.875 1.875h11.766c.517 0 .937.42.937.938zM15.434 9.957a.938.938 0 010 1.326l-1.44 1.44a2.795 2.795 0 01-1.988.824 2.794 2.794 0 01-1.989-.824l-1.44-1.44a.937.937 0 111.326-1.326l1.21 1.211-.004-4.276a.938.938 0 111.875-.002l.005 4.187 1.12-1.12a.938.938 0 011.325 0z" mask="url(#aqa)"/></g><defs><clipPath id="aqa"><path d="M0 0h24v24H0z"/></clipPath></defs></svg><svg viewBox="0 0 22 22" id="choose-3" xmlns="http://www.w3.org/2000/svg"><path d="M.5 19.27c0 1.23 1 2.23 2.23 2.23h16.54c1.23 0 2.23-1 2.23-2.23V2.73c0-1.23-1-2.23-2.23-2.23H2.73C1.5.5.5 1.5.5 2.73v16.54zm18.77.73H2.73a.73.73 0 01-.73-.73v-1.16l6.724-5.38 6.278 5.58a.749.749 0 10.996-1.12l-1.717-1.526 1.899-1.424L20 18.06v1.21a.73.73 0 01-.73.73zM2.73 2h16.54a.73.73 0 01.73.73v13.21l-3.22-3.22a.748.748 0 00-.98-.07l-2.662 1.997-3.89-3.457a.75.75 0 00-.967-.026L2 16.189V2.73A.73.73 0 012.73 2z"/><path d="M14.75 9.5c1.655 0 3-1.345 3-3s-1.345-3-3-3-3 1.345-3 3 1.345 3 3 3zm0-4.5c.827 0 1.5.673 1.5 1.5S15.577 8 14.75 8s-1.5-.673-1.5-1.5.673-1.5 1.5-1.5z"/></svg><svg viewBox="0 0 24 22" id="choose-4" xmlns="http://www.w3.org/2000/svg"><path d="M20.945 9.174a.328.328 0 00-.29-.176H3.348a.328.328 0 00-.29.176L.892 13.296a.328.328 0 00.29.48H3.02v7.238c0 .182.147.328.328.329h17.305a.328.328 0 00.328-.329v-7.237h1.838a.328.328 0 00.29-.48l-2.165-4.123zm-17.398.48h7.91L9.64 13.122H1.726l1.82-3.466zm.13 4.123h6.158a.328.328 0 00.291-.176l1.547-2.944v10.03H3.676v-6.91zm16.65 6.91h-7.998v-10.03l1.547 2.944a.327.327 0 00.29.176h6.16v6.91zm-5.963-7.566l-1.82-3.466h7.912l1.82 3.466h-7.912zm-2.362-5.147a3.659 3.659 0 10-3.658-3.658 3.663 3.663 0 003.658 3.658zm0-6.66a3.002 3.002 0 110 6.004 3.002 3.002 0 010-6.005z"/><path d="M12.333 5.23h-1.478a.328.328 0 100 .656h1.477a1.353 1.353 0 000-2.706h-.684l.228-.228a.328.328 0 00-.456-.473l-.008.009-.787.787a.328.328 0 000 .464l.787.788a.328.328 0 00.464-.464l-.228-.229h.685a.697.697 0 010 1.393v.002z"/></svg><svg viewBox="0 0 8 8" id="circle-radio" xmlns="http://www.w3.org/2000/svg"><circle cx="4" cy="4" r="4"/></svg><svg viewBox="0 0 16 16" id="close" xmlns="http://www.w3.org/2000/svg"><path d="M14.667 1.333L1.334 14.667m13.333 0L1.334 1.333l13.333 13.334z"/></svg><svg viewBox="0 0 16 12" id="color-check" xmlns="http://www.w3.org/2000/svg"><path d="M14.542 2.042l-8.833 8.833a.417.417 0 01-.592 0L.625 6.383a.417.417 0 010-.591l.584-.584a.417.417 0 01.591 0l3.61 3.609L13.367.858a.425.425 0 01.591 0l.584.592a.417.417 0 010 .592z"/></svg><svg viewBox="0 0 14 13" id="comments" xmlns="http://www.w3.org/2000/svg"><path d="M11.358 0H1.89C.848 0 0 .848 0 1.89v6.39c0 1.042.848 1.89 1.89 1.89h.742l.014 1.669a.405.405 0 00.653.317L5.87 10.17h5.487c1.042 0 1.89-.848 1.89-1.89V1.89A1.89 1.89 0 0011.358 0zm1.08 8.28a1.08 1.08 0 01-1.08 1.08H5.733c-.09 0-.176.03-.247.085l-2.037 1.571-.01-1.254a.405.405 0 00-.406-.402H1.89A1.08 1.08 0 01.81 8.28V1.89c0-.596.484-1.08 1.08-1.08h9.468c.596 0 1.08.484 1.08 1.08v6.39z"/></svg><svg viewBox="0 0 14 14" id="edit" xmlns="http://www.w3.org/2000/svg"><g clip-path="url(#axa)"><path d="M13.598 8.522a.367.367 0 00-.367.367v3.258a1.1 1.1 0 01-1.1 1.1H1.835c-.608 0-1.1-.493-1.101-1.1V2.585c0-.608.493-1.1 1.1-1.101h3.259a.367.367 0 100-.734H1.835A1.837 1.837 0 000 2.585v9.562a1.837 1.837 0 001.835 1.834H12.13a1.837 1.837 0 001.834-1.834V8.889a.367.367 0 00-.367-.367z"/><path d="M5.738 6.59l5.358-5.357 1.728 1.728-5.358 5.357-1.728-1.727zm-.875 2.603l1.91-.53-1.38-1.38-.53 1.91zM13.302.324a.918.918 0 00-1.298 0l-.389.39 1.728 1.728.39-.39a.918.918 0 000-1.297l-.431-.43z"/></g><defs><clipPath id="axa"><path d="M0 0h14v14H0z"/></clipPath></defs></svg><svg viewBox="0 0 14 26" id="facebook" xmlns="http://www.w3.org/2000/svg"><path d="M11.33 4.317h2.374V.183C13.294.127 11.886 0 10.246 0 6.823 0 4.479 2.153 4.479 6.109V9.75H.703v4.621h3.776V26h4.63V14.373h3.624l.575-4.622h-4.2V6.567c.001-1.336.361-2.25 2.222-2.25z"/></svg><svg viewBox="0 0 25 23" id="favorites" xmlns="http://www.w3.org/2000/svg"><path d="M6.75 1C3.575 1 1 3.61 1 6.829c0 2.599 1.006 8.767 10.911 15.002a1.113 1.113 0 001.178 0C22.994 15.596 24 9.428 24 6.829 24 3.609 21.425 1 18.25 1S12.5 4.533 12.5 4.533 9.925 1 6.75 1z"/></svg><svg viewBox="0 0 70 57" id="footer-logo" xmlns="http://www.w3.org/2000/svg"><path d="M25.48 17.74h5.631v11.266c-3.16 3.462-7.692 5.194-13.598 5.194-4.99 0-9.157-1.62-12.5-4.857C1.671 26.105 0 22.058 0 17.201c0-4.857 1.694-8.926 5.082-12.21C8.516 1.665 12.66 0 17.512 0c4.854 0 8.883 1.372 12.088 4.115l-3.022 4.25c-2.335-1.934-5.196-2.901-8.584-2.901-3.434 0-6.319 1.102-8.654 3.305-2.29 2.159-3.434 4.97-3.434 8.432 0 3.463 1.1 6.273 3.297 8.432 2.243 2.114 5.013 3.17 8.31 3.17 3.205 0 5.86-.674 7.966-2.023v-9.04zM37.445 0v22.8M37.445 22.8v22.8M57.527 57c-5.463 0-10.379-1.663-14.75-4.988l3.46-5.432c3.885 2.909 7.709 4.364 11.472 4.364 1.578 0 2.822-.357 3.733-1.07.971-.77 1.457-1.72 1.457-2.849 0-1.663-2.246-3.147-6.738-4.453a3.593 3.593 0 00-.455-.178.709.709 0 00-.273-.09c-7.04-1.84-10.561-4.957-10.561-9.35 0-3.088 1.183-5.552 3.55-7.393 2.428-1.84 5.615-2.761 9.56-2.761 3.885 0 7.587 1.128 11.108 3.384l-2.64 5.166c-2.732-1.781-5.736-2.672-9.014-2.672-3.824 0-5.736 1.188-5.736 3.563 0 1.009.364 1.751 1.093 2.226.789.416 2.063.831 3.824 1.247 2.67.713 4.916 1.425 6.737 2.138 1.214.534 2.276 1.098 3.186 1.692C68.847 41.088 70 43.433 70 46.58c0 3.087-1.184 5.61-3.55 7.57-2.307 1.9-5.281 2.85-8.923 2.85z"/></svg><svg viewBox="0 0 12 12" id="gift" xmlns="http://www.w3.org/2000/svg"><path d="M11 4.5H1a.25.25 0 00-.25.25v7c0 .138.112.25.25.25h10a.25.25 0 00.25-.25v-7A.25.25 0 0011 4.5zm-.25 7h-9.5V5h9.5v6.5z"/><path d="M11.5 2.5H.5a.25.25 0 00-.25.25v2c0 .138.112.25.25.25h11a.25.25 0 00.25-.25v-2a.25.25 0 00-.25-.25zm-.25 2H.75V3h10.5v1.5z"/><path d="M6 2.5a.25.25 0 00-.25.25v9a.25.25 0 00.5 0v-9A.25.25 0 006 2.5z"/><path d="M6.255 2.691C6 1.485 4.465.192 3.444.019a1.001 1.001 0 00-.967 1.615l.004.006c.743.949 3.215 1.312 3.495 1.35a.25.25 0 00.279-.3zM2.868 1.323A.492.492 0 012.75 1a.5.5 0 01.605-.49c.75.128 1.881 1.035 2.287 1.92-.87-.161-2.34-.536-2.773-1.107z"/><path d="M8.75 0a.985.985 0 00-.187.018C7.535.192 6.002 1.485 5.745 2.69a.25.25 0 00.278.3c.28-.039 2.752-.402 3.495-1.35l.005-.007A1.001 1.001 0 008.75 0zm.396 1.305l-.015.018c-.432.571-1.902.946-2.773 1.107.407-.886 1.54-1.793 2.295-1.92a.5.5 0 01.493.796z"/></svg><svg viewBox="0 0 16 12" id="icon-color" xmlns="http://www.w3.org/2000/svg"><path d="M14.542 2.042l-8.833 8.833a.417.417 0 01-.592 0L.625 6.383a.417.417 0 010-.591l.584-.584a.417.417 0 01.591 0l3.61 3.609L13.367.858a.425.425 0 01.591 0l.584.592a.417.417 0 010 .592z"/></svg><svg viewBox="0 0 51 42" id="logo" xmlns="http://www.w3.org/2000/svg"><path d="M18.345 13.072H22.4v8.3c-2.275 2.552-5.538 3.828-9.79 3.828-3.594 0-6.594-1.193-9-3.579C1.203 19.235 0 16.253 0 12.675c0-3.58 1.22-6.578 3.66-8.997C6.131 1.226 9.114 0 12.61 0c3.494 0 6.395 1.01 8.702 3.032l-2.176 3.131c-1.68-1.425-3.741-2.137-6.18-2.137-2.473 0-4.55.812-6.231 2.436-1.648 1.59-2.472 3.661-2.472 6.213 0 2.551.79 4.622 2.373 6.213 1.615 1.557 3.61 2.336 5.983 2.336 2.308 0 4.22-.497 5.736-1.491v-6.66zM27.1 0v16.8M27.1 16.8v16.8M41.42 42c-3.933 0-7.473-1.225-10.62-3.675l2.491-4.003c2.797 2.144 5.55 3.215 8.26 3.215 1.136 0 2.032-.262 2.687-.787.7-.569 1.05-1.269 1.05-2.1 0-1.225-1.618-2.319-4.852-3.281a2.536 2.536 0 00-.327-.131.503.503 0 00-.197-.066c-5.07-1.356-7.604-3.653-7.604-6.89 0-2.276.852-4.091 2.556-5.448 1.749-1.356 4.043-2.034 6.883-2.034 2.797 0 5.463.831 7.998 2.494L47.844 23.1a11.446 11.446 0 00-6.49-1.969c-2.753 0-4.13.875-4.13 2.625 0 .744.263 1.29.787 1.64.568.307 1.486.613 2.753.92 1.923.525 3.54 1.05 4.851 1.575.874.393 1.639.809 2.294 1.247 1.661 1.137 2.491 2.865 2.491 5.184 0 2.275-.852 4.134-2.556 5.578-1.66 1.4-3.802 2.1-6.424 2.1z"/></svg><svg viewBox="0 0 95 112" id="patter-blue" xmlns="http://www.w3.org/2000/svg"><path opacity=".8" fill-rule="evenodd" clip-rule="evenodd" d="M92.044 4a2.002 2.002 0 002.004-2c0-1.105-.897-2-2.004-2a2.002 2.002 0 00-2.005 2c0 1.105.897 2 2.005 2zm0 18a2.002 2.002 0 002.004-2c0-1.105-.897-2-2.004-2a2.002 2.002 0 00-2.005 2c0 1.105.897 2 2.005 2zm0 18a2.002 2.002 0 002.004-2c0-1.105-.897-2-2.004-2a2.002 2.002 0 00-2.005 2c0 1.105.897 2 2.005 2zm0 18a2.002 2.002 0 002.004-2c0-1.105-.897-2-2.004-2a2.002 2.002 0 00-2.005 2c0 1.105.897 2 2.005 2zm0 18a2.002 2.002 0 002.004-2c0-1.105-.897-2-2.004-2a2.002 2.002 0 00-2.005 2c0 1.105.897 2 2.005 2zm0 18a2.002 2.002 0 002.004-2c0-1.105-.897-2-2.004-2a2.002 2.002 0 00-2.005 2c0 1.105.897 2 2.005 2zM4.009 110c0 1.105-.897 2-2.004 2A2.002 2.002 0 010 110c0-1.105.897-2 2.005-2 1.107 0 2.004.895 2.004 2zm16.003 2a2.002 2.002 0 002.005-2c0-1.105-.898-2-2.005-2a2.002 2.002 0 00-2.004 2c0 1.105.897 2 2.004 2zm20.013-2c0 1.105-.898 2-2.005 2a2.002 2.002 0 01-2.004-2c0-1.105.897-2 2.004-2s2.005.895 2.005 2zm16.003 2a2.002 2.002 0 002.005-2c0-1.105-.898-2-2.005-2a2.002 2.002 0 00-2.005 2c0 1.105.898 2 2.005 2zm20.012-2c0 1.105-.897 2-2.004 2a2.002 2.002 0 01-2.005-2c0-1.105.898-2 2.005-2 1.107 0 2.004.895 2.004 2zm18.008 0c0 1.105-.897 2-2.004 2a2.002 2.002 0 01-2.005-2c0-1.105.897-2 2.005-2 1.107 0 2.004.895 2.004 2zM76.04 92c0 1.105-.897 2-2.004 2a2.002 2.002 0 01-2.005-2c0-1.105.898-2 2.005-2 1.107 0 2.004.895 2.004 2zm-20.012 2a2.002 2.002 0 002.005-2c0-1.105-.898-2-2.005-2a2.002 2.002 0 00-2.005 2c0 1.105.898 2 2.005 2zm-16.003-2c0 1.105-.898 2-2.005 2a2.002 2.002 0 01-2.004-2c0-1.105.897-2 2.004-2s2.005.895 2.005 2zm-20.013 2a2.002 2.002 0 002.005-2c0-1.105-.898-2-2.005-2a2.002 2.002 0 00-2.004 2c0 1.105.897 2 2.004 2zM4.01 92c0 1.105-.897 2-2.004 2A2.002 2.002 0 010 92c0-1.105.897-2 2.005-2 1.107 0 2.004.895 2.004 2zm72.03-18c0 1.105-.897 2-2.004 2a2.002 2.002 0 01-2.005-2c0-1.105.898-2 2.005-2 1.107 0 2.004.895 2.004 2zm-20.012 2a2.002 2.002 0 002.005-2c0-1.105-.898-2-2.005-2a2.002 2.002 0 00-2.005 2c0 1.105.898 2 2.005 2zm-16.003-2c0 1.105-.898 2-2.005 2a2.002 2.002 0 01-2.004-2c0-1.105.897-2 2.004-2s2.005.895 2.005 2zm-20.013 2a2.002 2.002 0 002.005-2c0-1.105-.898-2-2.005-2a2.002 2.002 0 00-2.004 2c0 1.105.897 2 2.004 2zM4.01 74c0 1.105-.897 2-2.004 2A2.002 2.002 0 010 74c0-1.105.897-2 2.005-2 1.107 0 2.004.895 2.004 2zm72.03-18c0 1.105-.897 2-2.004 2a2.002 2.002 0 01-2.005-2c0-1.105.898-2 2.005-2 1.107 0 2.004.895 2.004 2zm-20.012 2a2.002 2.002 0 002.005-2c0-1.105-.898-2-2.005-2a2.002 2.002 0 00-2.005 2c0 1.105.898 2 2.005 2zm-16.003-2c0 1.105-.898 2-2.005 2a2.002 2.002 0 01-2.004-2c0-1.105.897-2 2.004-2s2.005.895 2.005 2zm-20.013 2a2.002 2.002 0 002.005-2c0-1.105-.898-2-2.005-2a2.002 2.002 0 00-2.004 2c0 1.105.897 2 2.004 2zM4.01 56c0 1.105-.897 2-2.004 2A2.002 2.002 0 010 56c0-1.105.897-2 2.005-2 1.107 0 2.004.895 2.004 2zm72.03-18c0 1.105-.897 2-2.004 2a2.002 2.002 0 01-2.005-2c0-1.105.898-2 2.005-2 1.107 0 2.004.895 2.004 2zm-20.012 2a2.002 2.002 0 002.005-2c0-1.105-.898-2-2.005-2a2.002 2.002 0 00-2.005 2c0 1.105.898 2 2.005 2zm-16.003-2c0 1.105-.898 2-2.005 2a2.002 2.002 0 01-2.004-2c0-1.105.897-2 2.004-2s2.005.895 2.005 2zm-20.013 2a2.002 2.002 0 002.005-2c0-1.105-.898-2-2.005-2a2.002 2.002 0 00-2.004 2c0 1.105.897 2 2.004 2zM4.01 38c0 1.105-.897 2-2.004 2A2.002 2.002 0 010 38c0-1.105.897-2 2.005-2 1.107 0 2.004.895 2.004 2zm72.03-18c0 1.105-.897 2-2.004 2a2.002 2.002 0 01-2.005-2c0-1.105.898-2 2.005-2 1.107 0 2.004.895 2.004 2zm-20.012 2a2.002 2.002 0 002.005-2c0-1.105-.898-2-2.005-2a2.002 2.002 0 00-2.005 2c0 1.105.898 2 2.005 2zm-16.003-2c0 1.105-.898 2-2.005 2a2.002 2.002 0 01-2.004-2c0-1.105.897-2 2.004-2s2.005.895 2.005 2zm-20.013 2a2.002 2.002 0 002.005-2c0-1.105-.898-2-2.005-2a2.002 2.002 0 00-2.004 2c0 1.105.897 2 2.004 2zM4.01 20c0 1.105-.897 2-2.004 2A2.002 2.002 0 010 20c0-1.105.897-2 2.005-2 1.107 0 2.004.895 2.004 2zM76.04 2c0 1.105-.897 2-2.004 2a2.002 2.002 0 01-2.005-2c0-1.105.898-2 2.005-2 1.107 0 2.004.895 2.004 2zM56.028 4a2.002 2.002 0 002.005-2c0-1.105-.898-2-2.005-2a2.002 2.002 0 00-2.005 2c0 1.105.898 2 2.005 2zM40.025 2c0 1.105-.898 2-2.005 2a2.002 2.002 0 01-2.004-2c0-1.105.897-2 2.004-2s2.005.895 2.005 2zM20.012 4a2.002 2.002 0 002.005-2c0-1.105-.898-2-2.005-2a2.002 2.002 0 00-2.004 2c0 1.105.897 2 2.004 2zM4.01 2c0 1.105-.897 2-2.004 2A2.002 2.002 0 010 2C0 .895.897 0 2.005 0c1.107 0 2.004.895 2.004 2z"/></svg><svg viewBox="0 0 95 112" id="pattern-gray" xmlns="http://www.w3.org/2000/svg"><path opacity=".8" fill-rule="evenodd" clip-rule="evenodd" d="M92.044 4a2.002 2.002 0 002.004-2c0-1.105-.897-2-2.004-2a2.002 2.002 0 00-2.005 2c0 1.105.897 2 2.005 2zm0 18a2.002 2.002 0 002.004-2c0-1.105-.897-2-2.004-2a2.002 2.002 0 00-2.005 2c0 1.105.897 2 2.005 2zm0 18a2.002 2.002 0 002.004-2c0-1.105-.897-2-2.004-2a2.002 2.002 0 00-2.005 2c0 1.105.897 2 2.005 2zm0 18a2.002 2.002 0 002.004-2c0-1.105-.897-2-2.004-2a2.002 2.002 0 00-2.005 2c0 1.105.897 2 2.005 2zm0 18a2.002 2.002 0 002.004-2c0-1.105-.897-2-2.004-2a2.002 2.002 0 00-2.005 2c0 1.105.897 2 2.005 2zm0 18a2.002 2.002 0 002.004-2c0-1.105-.897-2-2.004-2a2.002 2.002 0 00-2.005 2c0 1.105.897 2 2.005 2zM4.009 110c0 1.105-.897 2-2.004 2A2.002 2.002 0 010 110c0-1.105.897-2 2.005-2 1.107 0 2.004.895 2.004 2zm16.003 2a2.002 2.002 0 002.005-2c0-1.105-.898-2-2.005-2a2.002 2.002 0 00-2.004 2c0 1.105.897 2 2.004 2zm20.013-2c0 1.105-.898 2-2.005 2a2.002 2.002 0 01-2.004-2c0-1.105.897-2 2.004-2s2.005.895 2.005 2zm16.003 2a2.002 2.002 0 002.005-2c0-1.105-.898-2-2.005-2a2.002 2.002 0 00-2.005 2c0 1.105.898 2 2.005 2zm20.012-2c0 1.105-.897 2-2.004 2a2.002 2.002 0 01-2.005-2c0-1.105.898-2 2.005-2 1.107 0 2.004.895 2.004 2zm18.008 0c0 1.105-.897 2-2.004 2a2.002 2.002 0 01-2.005-2c0-1.105.897-2 2.005-2 1.107 0 2.004.895 2.004 2zM76.04 92c0 1.105-.897 2-2.004 2a2.002 2.002 0 01-2.005-2c0-1.105.898-2 2.005-2 1.107 0 2.004.895 2.004 2zm-20.012 2a2.002 2.002 0 002.005-2c0-1.105-.898-2-2.005-2a2.002 2.002 0 00-2.005 2c0 1.105.898 2 2.005 2zm-16.003-2c0 1.105-.898 2-2.005 2a2.002 2.002 0 01-2.004-2c0-1.105.897-2 2.004-2s2.005.895 2.005 2zm-20.013 2a2.002 2.002 0 002.005-2c0-1.105-.898-2-2.005-2a2.002 2.002 0 00-2.004 2c0 1.105.897 2 2.004 2zM4.01 92c0 1.105-.897 2-2.004 2A2.002 2.002 0 010 92c0-1.105.897-2 2.005-2 1.107 0 2.004.895 2.004 2zm72.03-18c0 1.105-.897 2-2.004 2a2.002 2.002 0 01-2.005-2c0-1.105.898-2 2.005-2 1.107 0 2.004.895 2.004 2zm-20.012 2a2.002 2.002 0 002.005-2c0-1.105-.898-2-2.005-2a2.002 2.002 0 00-2.005 2c0 1.105.898 2 2.005 2zm-16.003-2c0 1.105-.898 2-2.005 2a2.002 2.002 0 01-2.004-2c0-1.105.897-2 2.004-2s2.005.895 2.005 2zm-20.013 2a2.002 2.002 0 002.005-2c0-1.105-.898-2-2.005-2a2.002 2.002 0 00-2.004 2c0 1.105.897 2 2.004 2zM4.01 74c0 1.105-.897 2-2.004 2A2.002 2.002 0 010 74c0-1.105.897-2 2.005-2 1.107 0 2.004.895 2.004 2zm72.03-18c0 1.105-.897 2-2.004 2a2.002 2.002 0 01-2.005-2c0-1.105.898-2 2.005-2 1.107 0 2.004.895 2.004 2zm-20.012 2a2.002 2.002 0 002.005-2c0-1.105-.898-2-2.005-2a2.002 2.002 0 00-2.005 2c0 1.105.898 2 2.005 2zm-16.003-2c0 1.105-.898 2-2.005 2a2.002 2.002 0 01-2.004-2c0-1.105.897-2 2.004-2s2.005.895 2.005 2zm-20.013 2a2.002 2.002 0 002.005-2c0-1.105-.898-2-2.005-2a2.002 2.002 0 00-2.004 2c0 1.105.897 2 2.004 2zM4.01 56c0 1.105-.897 2-2.004 2A2.002 2.002 0 010 56c0-1.105.897-2 2.005-2 1.107 0 2.004.895 2.004 2zm72.03-18c0 1.105-.897 2-2.004 2a2.002 2.002 0 01-2.005-2c0-1.105.898-2 2.005-2 1.107 0 2.004.895 2.004 2zm-20.012 2a2.002 2.002 0 002.005-2c0-1.105-.898-2-2.005-2a2.002 2.002 0 00-2.005 2c0 1.105.898 2 2.005 2zm-16.003-2c0 1.105-.898 2-2.005 2a2.002 2.002 0 01-2.004-2c0-1.105.897-2 2.004-2s2.005.895 2.005 2zm-20.013 2a2.002 2.002 0 002.005-2c0-1.105-.898-2-2.005-2a2.002 2.002 0 00-2.004 2c0 1.105.897 2 2.004 2zM4.01 38c0 1.105-.897 2-2.004 2A2.002 2.002 0 010 38c0-1.105.897-2 2.005-2 1.107 0 2.004.895 2.004 2zm72.03-18c0 1.105-.897 2-2.004 2a2.002 2.002 0 01-2.005-2c0-1.105.898-2 2.005-2 1.107 0 2.004.895 2.004 2zm-20.012 2a2.002 2.002 0 002.005-2c0-1.105-.898-2-2.005-2a2.002 2.002 0 00-2.005 2c0 1.105.898 2 2.005 2zm-16.003-2c0 1.105-.898 2-2.005 2a2.002 2.002 0 01-2.004-2c0-1.105.897-2 2.004-2s2.005.895 2.005 2zm-20.013 2a2.002 2.002 0 002.005-2c0-1.105-.898-2-2.005-2a2.002 2.002 0 00-2.004 2c0 1.105.897 2 2.004 2zM4.01 20c0 1.105-.897 2-2.004 2A2.002 2.002 0 010 20c0-1.105.897-2 2.005-2 1.107 0 2.004.895 2.004 2zM76.04 2c0 1.105-.897 2-2.004 2a2.002 2.002 0 01-2.005-2c0-1.105.898-2 2.005-2 1.107 0 2.004.895 2.004 2zM56.028 4a2.002 2.002 0 002.005-2c0-1.105-.898-2-2.005-2a2.002 2.002 0 00-2.005 2c0 1.105.898 2 2.005 2zM40.025 2c0 1.105-.898 2-2.005 2a2.002 2.002 0 01-2.004-2c0-1.105.897-2 2.004-2s2.005.895 2.005 2zM20.012 4a2.002 2.002 0 002.005-2c0-1.105-.898-2-2.005-2a2.002 2.002 0 00-2.004 2c0 1.105.897 2 2.004 2zM4.01 2c0 1.105-.897 2-2.004 2A2.002 2.002 0 010 2C0 .895.897 0 2.005 0c1.107 0 2.004.895 2.004 2z"/></svg><svg viewBox="0 0 20 20" id="phone" xmlns="http://www.w3.org/2000/svg"><path d="M18.772 14.125c-.051-.04-3.772-2.723-4.793-2.53-.488.086-.766.419-1.326 1.084-.09.108-.306.365-.474.548a8.562 8.562 0 01-5.403-5.402c.184-.169.441-.385.551-.478.663-.556.996-.835 1.082-1.323.177-1.013-2.503-4.759-2.53-4.793A1.43 1.43 0 004.812.625C3.726.625.625 4.648.625 5.325c0 .04.057 4.042 4.992 9.063 5.016 4.93 9.018 4.987 9.057 4.987.678 0 4.701-3.101 4.701-4.188a1.427 1.427 0 00-.603-1.062z"/></svg><svg viewBox="0 0 70 70" id="play" xmlns="http://www.w3.org/2000/svg"><circle cx="35" cy="35" r="35" fill-opacity=".4"/><path d="M27 24.333v21.334L45.667 35 27 24.333z"/></svg><svg viewBox="0 0 14 15" id="rating" xmlns="http://www.w3.org/2000/svg"><path d="M6.383 1.255c.213-.562 1.02-.562 1.234 0l1.38 3.823a.66.66 0 00.618.422h3.391c.627 0 .9.78.407 1.162L11 8.833a.644.644 0 00-.215.728l.882 3.736c.214.6-.48 1.115-1.006.746l-3.278-2.08a.667.667 0 00-.766 0l-3.278 2.08c-.525.369-1.22-.147-1.006-.746l.882-3.736A.645.645 0 003 8.833L.587 6.662C.093 6.28.368 5.5.993 5.5h3.392a.66.66 0 00.617-.422l1.38-3.823z"/></svg><svg viewBox="0 0 14 15" id="rating-trans" xmlns="http://www.w3.org/2000/svg"><path d="M6.383 1.255c.213-.562 1.02-.562 1.234 0l1.38 3.823a.66.66 0 00.618.422h3.391c.627 0 .9.78.407 1.162L11 8.833a.644.644 0 00-.215.728l.882 3.736c.214.6-.48 1.115-1.006.746l-3.278-2.08a.667.667 0 00-.766 0l-3.278 2.08c-.525.369-1.22-.147-1.006-.746l.882-3.736A.645.645 0 003 8.833L.587 6.662C.093 6.28.368 5.5.993 5.5h3.392a.66.66 0 00.617-.422l1.38-3.823z"/></svg><svg viewBox="0 0 10 10" id="redclose" xmlns="http://www.w3.org/2000/svg"><path d="M9 1L1 9m8 0L1 1l8 8z"/></svg><svg viewBox="0 0 15 15" id="search" xmlns="http://www.w3.org/2000/svg"><path d="M13.999 14l-2.991-2.996L13.998 14zm-1.334-7A5.667 5.667 0 111.332 7a5.667 5.667 0 0111.333 0z"/></svg><svg viewBox="0 0 25 21" id="twitter" xmlns="http://www.w3.org/2000/svg"><path d="M24.613 3.348c-.904.401-1.876.672-2.898.794a5.06 5.06 0 002.22-2.792 10.076 10.076 0 01-3.205 1.224 5.048 5.048 0 00-8.6 4.604A14.332 14.332 0 011.728 1.904a5.044 5.044 0 00-.683 2.537A5.048 5.048 0 003.29 8.643a5.034 5.034 0 01-2.286-.632v.065a5.048 5.048 0 004.049 4.949 5.082 5.082 0 01-2.28.086 5.05 5.05 0 004.715 3.504 10.126 10.126 0 01-6.268 2.161c-.403 0-.805-.023-1.205-.07a14.272 14.272 0 007.735 2.267c9.284 0 14.36-7.69 14.36-14.358 0-.217-.006-.436-.015-.653a10.258 10.258 0 002.516-2.61l.002-.004z"/></svg><svg viewBox="0 0 26 16" id="vk" xmlns="http://www.w3.org/2000/svg"><path fill-rule="evenodd" clip-rule="evenodd" d="M25.404 1.444c.18-.592 0-1.027-.861-1.027h-2.844c-.724 0-1.057.376-1.238.79 0 0-1.446 3.463-3.495 5.712-.663.652-.964.859-1.326.859-.18 0-.453-.207-.453-.8V1.445c0-.71-.2-1.027-.801-1.027H9.914c-.452 0-.724.33-.724.642 0 .673 1.025.829 1.13 2.723v4.114c0 .903-.166 1.066-.528 1.066-.964 0-3.31-3.478-4.701-7.459C4.82.73 4.548.417 3.82.417H.975C.162.417 0 .793 0 1.207c0 .74.964 4.41 4.49 9.264 2.351 3.315 5.66 5.112 8.676 5.112 1.808 0 2.031-.398 2.031-1.086V11.99c0-.798.171-.958.744-.958.423 0 1.145.208 2.833 1.806 1.928 1.895 2.246 2.744 3.331 2.744h2.844c.813 0 1.22-.398.986-1.187-.258-.784-1.179-1.923-2.4-3.274-.663-.769-1.657-1.598-1.96-2.013-.42-.531-.3-.769 0-1.242 0 0 3.467-4.795 3.828-6.423h.001z"/></svg></svg>